<?xml version="1.0" encoding="utf-8"?>
<svg width="26px" height="22px" viewBox="0 0 26 22" version="1.1" xmlns:xlink="http://www.w3.org/1999/xlink" xmlns="http://www.w3.org/2000/svg">
  <g id="Icon-1" transform="translate(-2 -2)">
    <g id="folder" transform="translate(2 2)">
      <path d="M24 22L2 22C0.895 22 0 21.105 0 20L0 8C0 7.448 0.448 7 1 7L25 7C25.552 7 26 7.448 26 8L26 20C26 21.105 25.105 22 24 22Z" id="Shape" fill="#FFFFFF" fill-opacity="0.35" fill-rule="evenodd" stroke="none" />
      <path d="M6.868 0L2 0C0.895 0 0 0.895 0 2L0 5L26 5L26 4C26 2.895 25.105 2 24 2L9.2003 2L8.583 0.971C8.222 0.369 7.571 0 6.868 0Z" id="Combined-Shape" fill="#FFFFFF" fill-opacity="0.35" fill-rule="evenodd" stroke="none" />
    </g>
  </g>
</svg>