<?xml version="1.0" encoding="utf-8"?>
<svg width="76px" height="20px" viewbox="0 0 76 20" version="1.1" xmlns:xlink="http://www.w3.org/1999/xlink" xmlns="http://www.w3.org/2000/svg">
  <g id="Logo">
    <path d="M6.07102 4.08889L7.60111 11.8554L9.64947 1.83879C9.89626 0.612924 10.5626 0 11.6485 0C12.7508 0 13.4171 0.556471 13.6475 1.66943L13.6475 1.64523C13.8449 2.67754 14.0218 3.60499 14.1781 4.42761C14.3344 5.25024 14.4907 6.05268 14.647 6.83498C14.8033 7.61728 14.9596 8.41972 15.1159 9.24234C15.2722 10.065 15.449 10.9924 15.6465 12.0247L17.2259 4.45181C17.374 3.77436 17.448 3.27434 17.448 2.95174C17.448 2.53237 17.2506 2.32268 16.8557 2.32268C16.7735 2.32268 16.6871 2.32672 16.5966 2.33478C16.5061 2.34285 16.4033 2.34688 16.2881 2.34688C16.1729 2.36301 16.0537 2.37107 15.9303 2.37107L15.6218 2.37107C14.6675 2.37107 14.1904 2.00009 14.1904 1.25812C14.1904 0.532278 14.6593 0.169362 15.5971 0.169362C15.7452 0.169362 15.885 0.173395 16.0166 0.18146C16.1483 0.189525 16.2799 0.201622 16.4115 0.217752C17.0696 0.298401 17.6084 0.358887 18.028 0.399211C18.4475 0.439536 18.7478 0.459698 18.9287 0.459698C19.192 0.459698 19.6362 0.411309 20.2614 0.31453C20.9031 0.217751 21.3966 0.169362 21.7421 0.169362C22.5977 0.169362 23.0255 0.548407 23.0255 1.30651C23.0255 2.01622 22.6059 2.37107 21.7668 2.37107L21.5571 2.37107C21.4666 2.37107 21.3802 2.36301 21.2979 2.34688C21.2157 2.33075 21.1416 2.31865 21.0758 2.31059C21.01 2.30252 20.9606 2.29849 20.9277 2.29849C20.7468 2.29849 20.6069 2.37914 20.5082 2.54043C20.4753 2.63721 20.4218 2.81464 20.3478 3.07272C20.2738 3.33079 20.1791 3.66951 20.064 4.08889L17.4233 15.17C17.1436 16.1862 16.5184 16.6943 15.5477 16.6943C14.5112 16.6943 13.8613 16.0894 13.5981 14.8797L11.5991 4.59698L9.378 15.1942C9.26283 15.662 9.06129 16.0289 8.77336 16.2951C8.48544 16.5612 8.10292 16.6943 7.62579 16.6943C6.67154 16.6943 6.06279 16.1862 5.79955 15.17L2.98615 3.605C2.87098 3.16949 2.73114 2.85093 2.56661 2.64931C2.40208 2.44769 2.16352 2.34688 1.85092 2.34688L1.67817 2.34688L1.15991 2.39527C0.386633 2.39527 0 2.03235 0 1.30651C0 0.548407 0.411312 0.169362 1.23395 0.169362C1.49719 0.169362 1.77688 0.193557 2.07303 0.241946C2.91212 0.387115 3.71829 0.459698 4.49157 0.459698C4.67255 0.459698 4.97281 0.439536 5.39235 0.399211C5.81189 0.358887 6.35894 0.298401 7.0335 0.217752C7.16512 0.201622 7.28851 0.189525 7.40368 0.18146C7.51885 0.173395 7.64225 0.169362 7.77387 0.169362C8.61296 0.169362 9.03249 0.532278 9.03249 1.25812C9.03249 2.03235 8.54714 2.41946 7.57644 2.41946C7.49417 2.41946 7.39134 2.41543 7.26795 2.40736C7.14455 2.3993 7.01705 2.3872 6.88543 2.37107C6.7538 2.35494 6.63041 2.34285 6.51524 2.33478C6.40007 2.32672 6.32604 2.32268 6.29313 2.32268C5.99698 2.32268 5.84891 2.47591 5.84891 2.78238C5.84891 2.92755 5.87359 3.1211 5.92295 3.36305L6.07102 4.08889ZM24.8928 4.33084C25.4358 4.33084 25.7566 4.54052 25.8553 4.9599C26.6615 4.26631 27.624 3.91953 28.7427 3.91953C29.3515 3.91953 29.9027 4.00421 30.3962 4.17357C30.8898 4.34293 31.3176 4.58488 31.6795 4.89941C32.0415 5.21394 32.3212 5.58895 32.5186 6.02446C32.7161 6.45996 32.8148 6.94385 32.8148 7.47614C32.8148 8.25037 32.6091 8.87539 32.1978 9.35122C31.7865 9.82705 31.2353 10.065 30.5443 10.065C30.0672 10.065 29.6682 9.92786 29.3474 9.65365C29.0266 9.37944 28.8661 9.04072 28.8661 8.63748C28.8661 8.31488 29.0019 8.02455 29.2733 7.76647C29.5448 7.50839 29.8533 7.37936 30.1988 7.37936C30.2317 7.37936 30.2276 7.37129 30.1865 7.35516L30.2482 7.37936L30.2482 7.25838C30.2482 6.90353 30.0877 6.60513 29.7669 6.36318C29.4461 6.12124 29.0471 6.00026 28.57 6.00026C27.5335 6.00026 26.8425 6.46802 26.497 7.40355C26.2666 8.04874 26.1515 9.00039 26.1515 10.2585L26.1515 12.8957C26.1515 13.1699 26.1597 13.3393 26.1761 13.4038C26.2584 14.1135 26.3653 14.4684 26.497 14.4684C26.5957 14.4684 26.6862 14.4643 26.7684 14.4563C26.8507 14.4482 26.933 14.4361 27.0152 14.42C27.2291 14.3555 27.4183 14.3232 27.5828 14.3232C28.3397 14.3232 28.7181 14.67 28.7181 15.3636C28.7181 16.1217 28.2656 16.5007 27.3607 16.5007L27.2867 16.5007C27.1551 16.5007 26.9947 16.4927 26.8054 16.4765C26.6162 16.4604 26.3982 16.4362 26.1515 16.4039C25.6743 16.3556 25.3371 16.3314 25.1396 16.3314C24.827 16.3314 24.5556 16.3354 24.3252 16.3435C24.0949 16.3515 23.8892 16.3636 23.7082 16.3798L22.3756 16.5007C21.4707 16.5007 21.0182 16.1217 21.0182 15.3636C21.0182 14.6861 21.446 14.3474 22.3015 14.3474C22.3838 14.3474 22.4537 14.3434 22.5113 14.3353C22.5689 14.3272 22.6388 14.3393 22.7211 14.3716L23.0172 14.4442L23.2147 14.4442C23.2311 14.4603 23.2558 14.4684 23.2887 14.4684L23.3134 14.4684C23.4615 14.4684 23.5437 14.2264 23.5602 13.7425C23.5602 13.549 23.5684 13.3554 23.5848 13.1619C23.6013 12.9683 23.6095 12.7748 23.6095 12.5812L23.5355 7.37936C23.5026 6.78255 23.4203 6.44383 23.2887 6.36318C23.2558 6.36318 23.1735 6.37125 23.0419 6.38738C22.9103 6.40351 22.8198 6.41157 22.7704 6.41157L22.8198 6.41157C22.6224 6.45996 22.4167 6.48416 22.2028 6.48416C21.4295 6.48416 21.0429 6.12931 21.0429 5.41959C21.0429 4.67762 21.5036 4.30664 22.4249 4.30664C22.4578 4.32277 22.5566 4.33487 22.7211 4.34293C22.8856 4.351 23.0337 4.3631 23.1653 4.37923C23.2969 4.39536 23.4244 4.40745 23.5478 4.41552C23.6712 4.42358 23.7658 4.42761 23.8316 4.42761L23.9674 4.42761C24.025 4.42761 24.0949 4.41955 24.1771 4.40342C24.21 4.40342 24.2388 4.39939 24.2635 4.39132C24.2882 4.38326 24.3252 4.37923 24.3746 4.37923C24.5391 4.34697 24.7118 4.33084 24.8928 4.33084ZM38.2195 8.48021L38.2195 13.2949C38.2195 13.5127 38.2277 13.6619 38.2441 13.7425C38.2935 14.2264 38.3675 14.4684 38.4663 14.4684C38.4498 14.4684 38.4909 14.4603 38.5896 14.4442C38.6884 14.4281 38.8118 14.4039 38.9598 14.3716L38.9352 14.3958C38.9845 14.3797 39.0462 14.3635 39.1202 14.3474C39.1943 14.3313 39.2889 14.3232 39.404 14.3232C40.2596 14.3232 40.6874 14.6781 40.6874 15.3878C40.6874 15.7104 40.5516 15.9765 40.2802 16.1862C40.0087 16.3959 39.6673 16.5007 39.256 16.5007C39.1244 16.5007 38.9598 16.4927 38.7624 16.4765C38.565 16.4604 38.3346 16.4362 38.0714 16.4039C37.8246 16.3717 37.6107 16.3435 37.4297 16.3193C37.2488 16.2951 37.1007 16.283 36.9855 16.283C36.8045 16.283 36.603 16.291 36.3809 16.3072C36.1588 16.3233 35.9243 16.3475 35.6775 16.3798C35.3814 16.412 35.1305 16.4402 34.9248 16.4644C34.7192 16.4886 34.5505 16.5007 34.4189 16.5007C33.5305 16.5007 33.0862 16.1297 33.0862 15.3878C33.0862 14.6781 33.4893 14.3232 34.2955 14.3232C34.3284 14.3232 34.423 14.3313 34.5793 14.3474C34.7356 14.3635 34.8631 14.3797 34.9618 14.3958C35.077 14.4281 35.1675 14.4442 35.2333 14.4442L35.3814 14.4442C35.513 14.4442 35.6035 14.0571 35.6529 13.2828L35.6529 7.45194C35.6035 6.69384 35.5048 6.31479 35.3567 6.31479C35.3238 6.31479 35.2662 6.32286 35.1839 6.33899C35.1017 6.35512 35.003 6.37931 34.8878 6.41157C34.8055 6.44383 34.7109 6.46399 34.604 6.47206C34.4971 6.48012 34.4107 6.48416 34.3449 6.48416C33.5058 6.48416 33.0862 6.12931 33.0862 5.41959C33.0862 4.69375 33.5634 4.33084 34.5176 4.33084L34.9618 4.33084C35.077 4.33084 35.1593 4.3389 35.2086 4.35503C35.439 4.38729 35.6323 4.41148 35.7886 4.42761C35.9449 4.44374 36.0477 4.45181 36.0971 4.45181C36.13 4.45181 36.1999 4.44778 36.3068 4.43971C36.4138 4.43165 36.5166 4.41955 36.6153 4.40342L37.257 4.33084C37.9644 4.33084 38.3182 4.73408 38.3182 5.54057L38.3182 5.87929C38.3017 5.94381 38.2935 5.99623 38.2935 6.03656L38.2935 6.12124C38.277 6.16963 38.2688 6.39544 38.2688 6.79869C38.2688 6.9116 38.2647 7.02853 38.2565 7.14951C38.2483 7.27048 38.2441 7.39549 38.2441 7.52453C38.2277 7.84712 38.2195 8.16568 38.2195 8.48021ZM36.5906 3.75016C36.1135 3.75016 35.7104 3.59693 35.3814 3.29047C35.0523 2.984 34.8878 2.60496 34.8878 2.15332C34.8878 1.70169 35.0523 1.32667 35.3814 1.02827C35.7104 0.729869 36.1135 0.580671 36.5906 0.580671C37.0678 0.580671 37.475 0.729869 37.8123 1.02827C38.1495 1.32667 38.3182 1.70169 38.3182 2.15332C38.3182 2.60496 38.1495 2.984 37.8123 3.29047C37.475 3.59693 37.0678 3.75016 36.5906 3.75016ZM46.454 11.4441C46.4869 10.6053 46.9064 10.1859 47.7126 10.1859C48.5188 10.1859 48.9219 10.6456 48.9219 11.565C48.9219 12.436 48.8561 13.174 48.7245 13.7788C48.5928 14.3837 48.4119 14.8716 48.1815 15.2426C47.5234 16.2104 46.4458 16.6943 44.9486 16.6943C44.2576 16.6943 43.6612 16.5814 43.1594 16.3556C42.6576 16.1297 42.2586 15.8072 41.9624 15.3878C41.5182 14.7265 41.2961 13.7022 41.2961 12.3151L41.2961 6.82288C41.2961 6.70997 41.2796 6.65352 41.2467 6.65352L40.5064 6.65352C40.1444 6.65352 39.8442 6.54464 39.6056 6.32689C39.367 6.10914 39.2477 5.83897 39.2477 5.51637C39.2477 5.22604 39.367 4.96393 39.6056 4.73005C39.8442 4.49616 40.1197 4.37923 40.4323 4.37923L41.3455 4.37923L41.3455 1.91137C41.3455 1.10488 41.7815 0.701644 42.6534 0.701644C43.4761 0.701644 43.8874 1.10488 43.8874 1.91137L43.8874 4.35503C43.8874 4.37116 43.8956 4.37923 43.9121 4.37923L46.454 4.37923C47.3095 4.37923 47.7373 4.75021 47.7373 5.49218C47.7373 6.26641 47.2931 6.65352 46.4046 6.65352L43.8134 6.65352C43.8627 6.68578 43.8874 6.74223 43.8874 6.82288L43.8874 12.4602C43.8874 13.8474 44.2905 14.541 45.0967 14.541C45.9687 14.541 46.4046 14.0006 46.4046 12.9199L46.454 11.4441ZM61.3107 9.33912C61.3107 9.71011 61.3025 10.0004 61.286 10.2101C61.2696 10.4198 61.2202 10.5811 61.138 10.694C61.0557 10.8069 60.9364 10.8755 60.7801 10.8997C60.6238 10.9239 60.4058 10.936 60.1261 10.936L52.6978 10.936C52.632 10.936 52.5991 10.944 52.5991 10.9602C52.5991 12.0409 52.9199 12.9199 53.5615 13.5974C54.1703 14.291 54.9353 14.6377 55.8567 14.6377C56.4654 14.6377 57.0166 14.4764 57.5102 14.1539C58.0037 13.8313 58.3246 13.4199 58.4726 12.9199L58.6948 12.2667C58.7935 12.0247 58.9374 11.8312 59.1266 11.686C59.3158 11.5408 59.5503 11.4682 59.83 11.4682C60.6855 11.4682 61.1133 11.8715 61.1133 12.678C61.1133 13.7748 60.5375 14.7426 59.3858 15.5813C58.2834 16.3878 57.0413 16.7911 55.6592 16.7911C53.8824 16.7911 52.4757 16.2185 51.4391 15.0732C50.4191 13.928 49.909 12.4118 49.909 10.5247C49.909 8.62134 50.452 7.04064 51.5379 5.78251C52.6402 4.54052 54.0798 3.91953 55.8567 3.91953C56.6793 3.91953 57.4114 4.04856 58.0531 4.30664C58.6948 4.56472 59.2706 4.94376 59.7806 5.44379C60.8007 6.49223 61.3107 7.79066 61.3107 9.33912ZM58.6207 8.75845C58.6207 8.03261 58.3493 7.40355 57.8063 6.87127C57.2305 6.33899 56.5888 6.07285 55.8814 6.07285C55.1574 6.07285 54.45 6.36318 53.759 6.94385C53.1338 7.5084 52.8212 8.11326 52.8212 8.75845L58.6207 8.75845ZM61.9771 18.401L61.9771 18.399Q61.9771 18.345 61.9824 18.2912Q61.9876 18.2374 61.9982 18.1844Q62.0087 18.1314 62.0244 18.0797Q62.0401 18.028 62.0608 17.9781Q62.0814 17.9282 62.1069 17.8805Q62.1324 17.8329 62.1624 17.788Q62.1924 17.743 62.2267 17.7013Q62.261 17.6595 62.2992 17.6213Q62.3374 17.5831 62.3792 17.5488Q62.4209 17.5145 62.4659 17.4845Q62.5108 17.4545 62.5584 17.429Q62.6061 17.4035 62.656 17.3829Q62.7059 17.3622 62.7576 17.3465Q62.8093 17.3308 62.8623 17.3203Q62.9153 17.3097 62.9691 17.3044Q63.0229 17.2992 63.0769 17.2992L73.5128 17.2992Q73.5668 17.2992 73.6206 17.3044Q73.6744 17.3097 73.7274 17.3203Q73.7804 17.3308 73.8321 17.3465Q73.8838 17.3622 73.9337 17.3829Q73.9836 17.4035 74.0313 17.429Q74.0789 17.4545 74.1238 17.4845Q74.1688 17.5145 74.2106 17.5488Q74.2523 17.5831 74.2905 17.6213Q74.3287 17.6595 74.363 17.7013Q74.3973 17.743 74.4273 17.788Q74.4573 17.8329 74.4828 17.8805Q74.5083 17.9282 74.5289 17.9781Q74.5496 18.028 74.5653 18.0797Q74.581 18.1314 74.5915 18.1844Q74.6021 18.2374 74.6074 18.2912Q74.6127 18.345 74.6127 18.399L74.6127 18.401Q74.6127 18.455 74.6074 18.5088Q74.6021 18.5626 74.5915 18.6156Q74.581 18.6686 74.5653 18.7203Q74.5496 18.772 74.5289 18.8219Q74.5083 18.8718 74.4828 18.9195Q74.4573 18.9671 74.4273 19.012Q74.3973 19.057 74.363 19.0987Q74.3287 19.1405 74.2905 19.1787Q74.2523 19.2169 74.2106 19.2512Q74.1688 19.2855 74.1238 19.3155Q74.0789 19.3455 74.0313 19.371Q73.9836 19.3965 73.9337 19.4171Q73.8838 19.4378 73.8321 19.4535Q73.7804 19.4692 73.7274 19.4797Q73.6744 19.4903 73.6206 19.4956Q73.5668 19.5009 73.5128 19.5009L63.0769 19.5009Q63.0229 19.5009 62.9691 19.4956Q62.9153 19.4903 62.8623 19.4797Q62.8093 19.4692 62.7576 19.4535Q62.7059 19.4378 62.656 19.4171Q62.6061 19.3965 62.5584 19.371Q62.5108 19.3455 62.4659 19.3155Q62.4209 19.2855 62.3792 19.2512Q62.3374 19.2169 62.2992 19.1787Q62.261 19.1405 62.2267 19.0987Q62.1924 19.057 62.1624 19.012Q62.1324 18.9671 62.1069 18.9195Q62.0814 18.8718 62.0608 18.8219Q62.0401 18.772 62.0244 18.7203Q62.0087 18.6686 61.9982 18.6156Q61.9876 18.5626 61.9824 18.5088Q61.9771 18.455 61.9771 18.401Z" transform="matrix(1 0 0 1 -1.4210855E-14 -1.0658141E-14)" id="Write_" fill="#FFFFFF" fill-rule="evenodd" stroke="none" />
  </g>
</svg>