<?xml version="1.0" encoding="utf-8"?>
<svg width="165px" height="195px" viewBox="0 0 165 195" version="1.1" xmlns:xlink="http://www.w3.org/1999/xlink" xmlns="http://www.w3.org/2000/svg">
  <path d="M-5.00101 -164L140.001 -164Q140.246 -164 140.492 -163.988Q140.737 -163.976 140.981 -163.952Q141.225 -163.928 141.468 -163.892Q141.711 -163.856 141.952 -163.808Q142.192 -163.76 142.431 -163.7Q142.669 -163.641 142.904 -163.569Q143.138 -163.498 143.37 -163.415Q143.601 -163.333 143.827 -163.239Q144.054 -163.145 144.276 -163.04Q144.498 -162.935 144.715 -162.819Q144.931 -162.704 145.142 -162.577Q145.352 -162.451 145.556 -162.315Q145.76 -162.178 145.957 -162.032Q146.155 -161.886 146.344 -161.73Q146.534 -161.575 146.716 -161.41Q146.898 -161.245 147.071 -161.071Q147.245 -160.898 147.41 -160.716Q147.575 -160.534 147.73 -160.344Q147.886 -160.155 148.032 -159.957Q148.178 -159.76 148.315 -159.556Q148.451 -159.352 148.577 -159.141Q148.704 -158.931 148.819 -158.715Q148.935 -158.498 149.04 -158.276Q149.145 -158.054 149.239 -157.827Q149.333 -157.601 149.415 -157.37Q149.498 -157.138 149.569 -156.904Q149.641 -156.669 149.7 -156.431Q149.76 -156.192 149.808 -155.952Q149.856 -155.711 149.892 -155.468Q149.928 -155.225 149.952 -154.981Q149.976 -154.737 149.988 -154.492Q150 -154.246 150 -154.001L150 21.001Q150 21.2465 149.988 21.4916Q149.976 21.7368 149.952 21.9811Q149.928 22.2254 149.892 22.4682Q149.856 22.711 149.808 22.9517Q149.76 23.1925 149.7 23.4306Q149.641 23.6687 149.569 23.9036Q149.498 24.1385 149.415 24.3696Q149.333 24.6007 149.239 24.8275Q149.145 25.0542 149.04 25.2761Q148.935 25.498 148.819 25.7145Q148.704 25.931 148.577 26.1415Q148.451 26.3521 148.315 26.5561Q148.178 26.7602 148.032 26.9574Q147.886 27.1546 147.73 27.3443Q147.575 27.534 147.41 27.7159Q147.245 27.8978 147.071 28.0714Q146.898 28.2449 146.716 28.4098Q146.534 28.5746 146.344 28.7303Q146.155 28.886 145.957 29.0323Q145.76 29.1785 145.556 29.3149Q145.352 29.4512 145.141 29.5774Q144.931 29.7036 144.714 29.8193Q144.498 29.935 144.276 30.04Q144.054 30.1449 143.827 30.2389Q143.601 30.3328 143.37 30.4155Q143.138 30.4982 142.904 30.5694Q142.669 30.6407 142.431 30.7003Q142.192 30.76 141.952 30.8079Q141.711 30.8558 141.468 30.8918Q141.225 30.9278 140.981 30.9519Q140.737 30.9759 140.492 30.988Q140.246 31 140.001 31L-5.00101 31Q-5.24647 31 -5.49163 30.988Q-5.7368 30.9759 -5.98108 30.9519Q-6.22536 30.9278 -6.46816 30.8918Q-6.71097 30.8558 -6.95171 30.8079Q-7.19246 30.76 -7.43056 30.7003Q-7.66867 30.6407 -7.90356 30.5694Q-8.13845 30.4982 -8.36957 30.4155Q-8.60068 30.3328 -8.82746 30.2389Q-9.05423 30.1449 -9.27613 30.04Q-9.49802 29.935 -9.7145 29.8193Q-9.93098 29.7036 -10.1415 29.5774Q-10.3521 29.4512 -10.5561 29.3149Q-10.7602 29.1785 -10.9574 29.0323Q-11.1546 28.8861 -11.3443 28.7303Q-11.534 28.5746 -11.7159 28.4098Q-11.8978 28.2449 -12.0714 28.0714Q-12.2449 27.8978 -12.4098 27.7159Q-12.5746 27.534 -12.7303 27.3443Q-12.8861 27.1546 -13.0323 26.9574Q-13.1785 26.7602 -13.3149 26.5561Q-13.4512 26.3521 -13.5774 26.1415Q-13.7036 25.931 -13.8193 25.7145Q-13.935 25.498 -14.04 25.2761Q-14.1449 25.0542 -14.2389 24.8275Q-14.3328 24.6007 -14.4155 24.3696Q-14.4982 24.1385 -14.5694 23.9036Q-14.6407 23.6687 -14.7003 23.4306Q-14.76 23.1925 -14.8079 22.9517Q-14.8558 22.711 -14.8918 22.4682Q-14.9278 22.2254 -14.9519 21.9811Q-14.9759 21.7368 -14.988 21.4916Q-15 21.2465 -15 21.001L-15 -154.001Q-15 -154.246 -14.988 -154.492Q-14.9759 -154.737 -14.9519 -154.981Q-14.9278 -155.225 -14.8918 -155.468Q-14.8558 -155.711 -14.8079 -155.952Q-14.76 -156.192 -14.7003 -156.431Q-14.6407 -156.669 -14.5694 -156.904Q-14.4982 -157.138 -14.4155 -157.37Q-14.3328 -157.601 -14.2389 -157.827Q-14.1449 -158.054 -14.04 -158.276Q-13.935 -158.498 -13.8193 -158.715Q-13.7036 -158.931 -13.5774 -159.142Q-13.4512 -159.352 -13.3149 -159.556Q-13.1785 -159.76 -13.0323 -159.957Q-12.8861 -160.155 -12.7303 -160.344Q-12.5746 -160.534 -12.4098 -160.716Q-12.2449 -160.898 -12.0714 -161.071Q-11.8978 -161.245 -11.7159 -161.41Q-11.534 -161.575 -11.3443 -161.73Q-11.1546 -161.886 -10.9574 -162.032Q-10.7602 -162.178 -10.5561 -162.315Q-10.3521 -162.451 -10.1415 -162.577Q-9.93098 -162.704 -9.7145 -162.819Q-9.49802 -162.935 -9.27613 -163.04Q-9.05423 -163.145 -8.82746 -163.239Q-8.60068 -163.333 -8.36957 -163.415Q-8.13845 -163.498 -7.90356 -163.569Q-7.66867 -163.641 -7.43056 -163.7Q-7.19246 -163.76 -6.95171 -163.808Q-6.71097 -163.856 -6.46816 -163.892Q-6.22536 -163.928 -5.98108 -163.952Q-5.7368 -163.976 -5.49163 -163.988Q-5.24647 -164 -5.00101 -164Z" id="Rectangle-2" fill="#FFFFFF" fill-opacity="0.050980393" fill-rule="evenodd" stroke="none" />
</svg>